<?xml version="1.0" encoding="UTF-8" standalone="no"?>
<!DOCTYPE svg PUBLIC "-//W3C//DTD SVG 1.1//EN"
 "http://www.w3.org/Graphics/SVG/1.1/DTD/svg11.dtd">
<!-- Generated by graphviz version 2.38.0 (20140413.2041)
 -->
<!-- Title: G Pages: 1 -->
<svg width="589pt" height="876pt"
 viewBox="0.00 0.00 589.21 876.00" xmlns="http://www.w3.org/2000/svg" xmlns:xlink="http://www.w3.org/1999/xlink">
<g id="graph0" class="graph" transform="scale(1 1) rotate(0) translate(4 872)">
<title>G</title>
<polygon fill="white" stroke="none" points="-4,4 -4,-872 585.213,-872 585.213,4 -4,4"/>
<!-- main -->
<g id="node1" class="node"><title>main</title>
<polygon fill="#eff3ff" stroke="#bdd7e7" points="124.958,-425 0.0141569,-425 0.0141569,-389 124.958,-389 124.958,-425"/>
<text text-anchor="middle" x="62.4858" y="-402.8" font-family="serif" font-size="14.00" fill="#2171b5">Knowledge graph</text>
</g>
<!-- CoreOS -->
<g id="node2" class="node"><title>CoreOS</title>
<ellipse fill="#eff3ff" stroke="#bdd7e7" cx="196.66" cy="-580" rx="35.877" ry="18"/>
<text text-anchor="middle" x="196.66" y="-576.4" font-family="serif" font-size="12.00" fill="#2171b5">CoreOS</text>
</g>
<!-- main&#45;&gt;CoreOS -->
<!-- Wildcard edge -->
<g id="edge1" class="edge"><title>main&#45;&gt;CoreOS</title>
<path fill="none" stroke="#9ecae1" d="M77.3809,-425.187C101.149,-456.297 149.647,-519.775 176.572,-555.017"/>
<polygon fill="#9ecae1" stroke="#9ecae1" points="174.073,-557.51 182.925,-563.332 179.635,-553.261 174.073,-557.51"/>
</g>
<!-- ceph -->
<g id="node8" class="node"><title>ceph</title>
<ellipse fill="#eff3ff" stroke="#bdd7e7" cx="196.66" cy="-407" rx="27" ry="18"/>
<text text-anchor="middle" x="196.66" y="-403.4" font-family="serif" font-size="12.00" fill="#2171b5">ceph</text>
</g>
<!-- main&#45;&gt;ceph -->
<!-- Wildcard edge -->
<g id="edge3" class="edge"><title>main&#45;&gt;ceph</title>
<path fill="none" stroke="#9ecae1" d="M125.316,-407C137.006,-407 148.875,-407 159.451,-407"/>
<polygon fill="#9ecae1" stroke="#9ecae1" points="159.541,-410.5 169.541,-407 159.541,-403.5 159.541,-410.5"/>
</g>
<!-- k8s -->
<g id="node21" class="node"><title>k8s</title>
<ellipse fill="#eff3ff" stroke="#bdd7e7" cx="196.66" cy="-234" rx="27" ry="18"/>
<text text-anchor="middle" x="196.66" y="-230.4" font-family="serif" font-size="12.00" fill="#2171b5">k8s</text>
</g>
<!-- main&#45;&gt;k8s -->
<!-- Wildcard edge -->
<g id="edge2" class="edge"><title>main&#45;&gt;k8s</title>
<path fill="none" stroke="#9ecae1" d="M77.3809,-388.813C101.333,-357.463 150.396,-293.244 177.191,-258.173"/>
<polygon fill="#9ecae1" stroke="#9ecae1" points="180.205,-259.993 183.495,-249.922 174.643,-255.743 180.205,-259.993"/>
</g>
<!-- flannel -->
<g id="node3" class="node"><title>flannel</title>
<ellipse fill="#2171b5" stroke="#eff3ff" cx="324.752" cy="-850" rx="27" ry="18"/>
<text text-anchor="middle" x="324.752" y="-847" font-family="serif" font-size="10.00" fill="#eff3ff">flannel</text>
</g>
<!-- CoreOS&#45;&gt;flannel -->
<!-- Wildcard edge -->
<g id="edge5" class="edge"><title>CoreOS&#45;&gt;flannel</title>
<path fill="none" stroke="#9ecae1" d="M198.104,-598.164C200.102,-641.961 210.875,-754.795 268.348,-823 274.146,-829.881 282.113,-835.155 290.199,-839.135"/>
<polygon fill="#9ecae1" stroke="#9ecae1" points="289.056,-842.454 299.622,-843.231 291.847,-836.035 289.056,-842.454"/>
</g>
<!-- fleet -->
<g id="node4" class="node"><title>fleet</title>
<ellipse fill="#eff3ff" stroke="#bdd7e7" cx="324.752" cy="-796" rx="27" ry="18"/>
<text text-anchor="middle" x="324.752" y="-793" font-family="serif" font-size="10.00" fill="#2171b5">fleet</text>
</g>
<!-- CoreOS&#45;&gt;fleet -->
<!-- Wildcard edge -->
<g id="edge8" class="edge"><title>CoreOS&#45;&gt;fleet</title>
<path fill="none" stroke="#9ecae1" d="M199.92,-598.186C205.352,-634.819 222.287,-718.314 268.348,-769 274.347,-775.602 282.316,-780.768 290.334,-784.733"/>
<polygon fill="#9ecae1" stroke="#9ecae1" points="289.093,-788.011 299.655,-788.849 291.921,-781.607 289.093,-788.011"/>
</g>
<!-- pxe -->
<g id="node5" class="node"><title>pxe</title>
<ellipse fill="#2171b5" stroke="#eff3ff" cx="324.752" cy="-742" rx="27" ry="18"/>
<text text-anchor="middle" x="324.752" y="-739" font-family="serif" font-size="10.00" fill="#eff3ff">pxe</text>
</g>
<!-- CoreOS&#45;&gt;pxe -->
<!-- Wildcard edge -->
<g id="edge19" class="edge"><title>CoreOS&#45;&gt;pxe</title>
<path fill="none" stroke="#9ecae1" d="M203.003,-597.98C212.19,-626.179 233.433,-681.08 268.348,-715 274.746,-721.216 282.854,-726.248 290.878,-730.206"/>
<polygon fill="#9ecae1" stroke="#9ecae1" points="289.596,-733.467 300.153,-734.367 292.462,-727.08 289.596,-733.467"/>
</g>
<!-- etcd -->
<g id="node7" class="node"><title>etcd</title>
<ellipse fill="#2171b5" stroke="#eff3ff" cx="324.752" cy="-688" rx="27" ry="18"/>
<text text-anchor="middle" x="324.752" y="-685" font-family="serif" font-size="10.00" fill="#eff3ff">etcd</text>
</g>
<!-- CoreOS&#45;&gt;etcd -->
<!-- Wildcard edge -->
<g id="edge7" class="edge"><title>CoreOS&#45;&gt;etcd</title>
<path fill="none" stroke="#9ecae1" d="M209.304,-596.981C222.138,-614.725 244.191,-642.507 268.348,-661 275.431,-666.423 283.778,-671.177 291.813,-675.124"/>
<polygon fill="#9ecae1" stroke="#9ecae1" points="290.463,-678.355 301.008,-679.377 293.401,-672.002 290.463,-678.355"/>
</g>
<!-- calico -->
<g id="node16" class="node"><title>calico</title>
<ellipse fill="#eff3ff" stroke="#bdd7e7" cx="324.752" cy="-634" rx="27" ry="18"/>
<text text-anchor="middle" x="324.752" y="-631" font-family="serif" font-size="10.00" fill="#2171b5">calico</text>
</g>
<!-- CoreOS&#45;&gt;calico -->
<!-- Wildcard edge -->
<g id="edge4" class="edge"><title>CoreOS&#45;&gt;calico</title>
<path fill="none" stroke="#9ecae1" d="M224.401,-591.452C244.246,-599.951 271.372,-611.568 292.266,-620.516"/>
<polygon fill="#9ecae1" stroke="#9ecae1" points="291.1,-623.824 301.671,-624.544 293.856,-617.39 291.1,-623.824"/>
</g>
<!-- OVS -->
<g id="node17" class="node"><title>OVS</title>
<ellipse fill="#eff3ff" stroke="#bdd7e7" cx="324.752" cy="-580" rx="56.3079" ry="18"/>
<text text-anchor="middle" x="324.752" y="-577" font-family="serif" font-size="10.00" fill="#2171b5">OVS(OpenSwitch)</text>
</g>
<!-- CoreOS&#45;&gt;OVS -->
<!-- Wildcard edge -->
<g id="edge6" class="edge"><title>CoreOS&#45;&gt;OVS</title>
<path fill="none" stroke="#9ecae1" d="M232.449,-580C240.499,-580 249.324,-580 258.216,-580"/>
<polygon fill="#9ecae1" stroke="#9ecae1" points="258.245,-583.5 268.245,-580 258.245,-576.5 258.245,-583.5"/>
</g>
<!-- systemd -->
<g id="node18" class="node"><title>systemd</title>
<ellipse fill="#2171b5" stroke="#eff3ff" cx="447.889" cy="-665" rx="30.9682" ry="18"/>
<text text-anchor="middle" x="447.889" y="-662" font-family="serif" font-size="10.00" fill="#eff3ff">systemd</text>
</g>
<!-- CoreOS&#45;&gt;systemd -->
<!-- Wildcard edge -->
<g id="edge9" class="edge"><title>CoreOS&#45;&gt;systemd</title>
<path fill="none" stroke="#9ecae1" d="M222.044,-567.236C259.009,-549.811 330.299,-523.879 381.155,-553 412.557,-570.981 430.422,-610.438 439.38,-637.375"/>
<polygon fill="#9ecae1" stroke="#9ecae1" points="436.068,-638.511 442.387,-647.015 442.751,-636.426 436.068,-638.511"/>
</g>
<!-- docker -->
<g id="node19" class="node"><title>docker</title>
<ellipse fill="#2171b5" stroke="#eff3ff" cx="324.752" cy="-380" rx="27" ry="18"/>
<text text-anchor="middle" x="324.752" y="-377" font-family="serif" font-size="10.00" fill="#eff3ff">docker</text>
</g>
<!-- CoreOS&#45;&gt;docker -->
<!-- Wildcard edge -->
<g id="edge15" class="edge"><title>CoreOS&#45;&gt;docker</title>
<path fill="none" stroke="#9ecae1" d="M200.619,-562.029C207.103,-527.825 225.544,-452.706 268.348,-407 274.446,-400.488 282.448,-395.354 290.468,-391.391"/>
<polygon fill="#9ecae1" stroke="#9ecae1" points="292.054,-394.517 299.778,-387.264 289.217,-388.117 292.054,-394.517"/>
</g>
<!-- kubelet&#45;wrapper -->
<g id="node22" class="node"><title>kubelet&#45;wrapper</title>
<ellipse fill="#eff3ff" stroke="#bdd7e7" cx="324.752" cy="-488" rx="50.7723" ry="18"/>
<text text-anchor="middle" x="324.752" y="-485" font-family="serif" font-size="10.00" fill="#2171b5">kubelet&#45;wrapper</text>
</g>
<!-- CoreOS&#45;&gt;kubelet&#45;wrapper -->
<!-- Wildcard edge -->
<g id="edge23" class="edge"><title>CoreOS&#45;&gt;kubelet&#45;wrapper</title>
<path fill="none" stroke="#9ecae1" d="M214.389,-564.3C228.29,-551.631 248.872,-533.722 268.348,-520 274.143,-515.916 280.493,-511.88 286.761,-508.121"/>
<polygon fill="#9ecae1" stroke="#9ecae1" points="288.938,-510.903 295.81,-502.839 285.409,-504.857 288.938,-510.903"/>
</g>
<!-- cloud&#45;config -->
<g id="node23" class="node"><title>cloud&#45;config</title>
<ellipse fill="#2171b5" stroke="#eff3ff" cx="324.752" cy="-434" rx="40.2381" ry="18"/>
<text text-anchor="middle" x="324.752" y="-431" font-family="serif" font-size="10.00" fill="#eff3ff">cloud&#45;config</text>
</g>
<!-- CoreOS&#45;&gt;cloud&#45;config -->
<!-- Wildcard edge -->
<g id="edge25" class="edge"><title>CoreOS&#45;&gt;cloud&#45;config</title>
<path fill="none" stroke="#9ecae1" d="M204.409,-562.086C214.752,-536.706 236.704,-490.134 268.348,-461 272.836,-456.868 278.073,-453.237 283.503,-450.089"/>
<polygon fill="#9ecae1" stroke="#9ecae1" points="285.5,-452.994 292.725,-445.244 282.244,-446.797 285.5,-452.994"/>
</g>
<!-- fleet&#45;&gt;systemd -->
<!-- Wildcard edge -->
<g id="edge14" class="edge"><title>fleet&#45;&gt;systemd</title>
<path fill="none" stroke="#9ecae1" d="M349.041,-788.036C359.666,-783.6 371.909,-777.28 381.155,-769 405.382,-747.306 424.042,-714.631 435.188,-691.71"/>
<polygon fill="#9ecae1" stroke="#9ecae1" points="438.41,-693.083 439.499,-682.544 432.075,-690.104 438.41,-693.083"/>
</g>
<!-- systemctl -->
<g id="node6" class="node"><title>systemctl</title>
<ellipse fill="#2171b5" stroke="#eff3ff" cx="547.917" cy="-692" rx="33.0927" ry="18"/>
<text text-anchor="middle" x="547.917" y="-689" font-family="serif" font-size="10.00" fill="#eff3ff">systemctl</text>
</g>
<!-- kubelet -->
<g id="node9" class="node"><title>kubelet</title>
<ellipse fill="#2171b5" stroke="#eff3ff" cx="447.889" cy="-411" rx="27.7105" ry="18"/>
<text text-anchor="middle" x="447.889" y="-408" font-family="serif" font-size="10.00" fill="#eff3ff">kubelet</text>
</g>
<!-- skydns -->
<g id="node10" class="node"><title>skydns</title>
<ellipse fill="#eff3ff" stroke="#bdd7e7" cx="324.752" cy="-288" rx="27.4146" ry="18"/>
<text text-anchor="middle" x="324.752" y="-285" font-family="serif" font-size="10.00" fill="#2171b5">skydns</text>
</g>
<!-- pod -->
<g id="node11" class="node"><title>pod</title>
<ellipse fill="#2171b5" stroke="#eff3ff" cx="324.752" cy="-234" rx="27" ry="18"/>
<text text-anchor="middle" x="324.752" y="-231" font-family="serif" font-size="10.00" fill="#eff3ff">pod</text>
</g>
<!-- label -->
<g id="node12" class="node"><title>label</title>
<ellipse fill="#eff3ff" stroke="#bdd7e7" cx="324.752" cy="-180" rx="27" ry="18"/>
<text text-anchor="middle" x="324.752" y="-177" font-family="serif" font-size="10.00" fill="#2171b5">label</text>
</g>
<!-- service -->
<g id="node13" class="node"><title>service</title>
<ellipse fill="#2171b5" stroke="#eff3ff" cx="324.752" cy="-126" rx="27.5501" ry="18"/>
<text text-anchor="middle" x="324.752" y="-123" font-family="serif" font-size="10.00" fill="#eff3ff">service</text>
</g>
<!-- deployment -->
<g id="node14" class="node"><title>deployment</title>
<ellipse fill="#eff3ff" stroke="#bdd7e7" cx="324.752" cy="-72" rx="39.1725" ry="18"/>
<text text-anchor="middle" x="324.752" y="-69" font-family="serif" font-size="10.00" fill="#2171b5">deployment</text>
</g>
<!-- loadbalancer -->
<g id="node15" class="node"><title>loadbalancer</title>
<ellipse fill="#eff3ff" stroke="#bdd7e7" cx="324.752" cy="-18" rx="42.1008" ry="18"/>
<text text-anchor="middle" x="324.752" y="-15" font-family="serif" font-size="10.00" fill="#2171b5">loadbalancer</text>
</g>
<!-- systemd&#45;&gt;systemctl -->
<!-- Wildcard edge -->
<g id="edge13" class="edge"><title>systemd&#45;&gt;systemctl</title>
<path fill="none" stroke="#9ecae1" d="M475.935,-672.449C485.914,-675.198 497.426,-678.369 508.235,-681.346"/>
<polygon fill="#9ecae1" stroke="#9ecae1" points="507.33,-684.727 517.9,-684.008 509.189,-677.978 507.33,-684.727"/>
</g>
<!-- journalctl -->
<g id="node20" class="node"><title>journalctl</title>
<ellipse fill="#2171b5" stroke="#eff3ff" cx="547.917" cy="-638" rx="32.1865" ry="18"/>
<text text-anchor="middle" x="547.917" y="-635" font-family="serif" font-size="10.00" fill="#eff3ff">journalctl</text>
</g>
<!-- systemd&#45;&gt;journalctl -->
<!-- Wildcard edge -->
<g id="edge12" class="edge"><title>systemd&#45;&gt;journalctl</title>
<path fill="none" stroke="#9ecae1" d="M475.935,-657.551C486.088,-654.754 497.827,-651.521 508.798,-648.499"/>
<polygon fill="#9ecae1" stroke="#9ecae1" points="509.88,-651.832 518.591,-645.802 508.021,-645.083 509.88,-651.832"/>
</g>
<!-- k8s&#45;&gt;kubelet -->
<!-- Wildcard edge -->
<g id="edge11" class="edge"><title>k8s&#45;&gt;kubelet</title>
<path fill="none" stroke="#9ecae1" d="M208.175,-250.612C220.512,-268.838 242.587,-297.786 268.348,-315 312.335,-344.395 335.348,-326.531 381.155,-353 397.478,-362.432 413.394,-376.315 425.476,-388.134"/>
<polygon fill="#9ecae1" stroke="#9ecae1" points="423.297,-390.907 432.828,-395.535 428.263,-385.974 423.297,-390.907"/>
</g>
<!-- k8s&#45;&gt;skydns -->
<!-- Wildcard edge -->
<g id="edge20" class="edge"><title>k8s&#45;&gt;skydns</title>
<path fill="none" stroke="#9ecae1" d="M219.912,-243.53C239.866,-252.075 269.374,-264.712 291.84,-274.334"/>
<polygon fill="#9ecae1" stroke="#9ecae1" points="290.727,-277.664 301.297,-278.384 293.483,-271.23 290.727,-277.664"/>
</g>
<!-- k8s&#45;&gt;pod -->
<!-- Wildcard edge -->
<g id="edge17" class="edge"><title>k8s&#45;&gt;pod</title>
<path fill="none" stroke="#9ecae1" d="M223.786,-234C242.214,-234 267.14,-234 287.492,-234"/>
<polygon fill="#9ecae1" stroke="#9ecae1" points="287.659,-237.5 297.659,-234 287.659,-230.5 287.659,-237.5"/>
</g>
<!-- k8s&#45;&gt;label -->
<!-- Wildcard edge -->
<g id="edge21" class="edge"><title>k8s&#45;&gt;label</title>
<path fill="none" stroke="#9ecae1" d="M219.912,-224.47C239.989,-215.872 269.739,-203.131 292.255,-193.488"/>
<polygon fill="#9ecae1" stroke="#9ecae1" points="293.907,-196.589 301.722,-189.435 291.151,-190.154 293.907,-196.589"/>
</g>
<!-- k8s&#45;&gt;service -->
<!-- Wildcard edge -->
<g id="edge18" class="edge"><title>k8s&#45;&gt;service</title>
<path fill="none" stroke="#9ecae1" d="M208.836,-217.668C221.597,-199.958 243.894,-171.72 268.348,-153 275.234,-147.729 283.313,-143.089 291.139,-139.209"/>
<polygon fill="#9ecae1" stroke="#9ecae1" points="292.879,-142.26 300.463,-134.862 289.921,-135.915 292.879,-142.26"/>
</g>
<!-- k8s&#45;&gt;deployment -->
<!-- Wildcard edge -->
<g id="edge10" class="edge"><title>k8s&#45;&gt;deployment</title>
<path fill="none" stroke="#9ecae1" d="M202.855,-216.478C211.96,-188.419 233.243,-133.105 268.348,-99 272.931,-94.5474 278.391,-90.7028 284.069,-87.425"/>
<polygon fill="#9ecae1" stroke="#9ecae1" points="285.823,-90.4575 293.077,-82.7346 282.59,-84.2488 285.823,-90.4575"/>
</g>
<!-- k8s&#45;&gt;loadbalancer -->
<!-- Wildcard edge -->
<g id="edge22" class="edge"><title>k8s&#45;&gt;loadbalancer</title>
<path fill="none" stroke="#9ecae1" d="M199.879,-216.095C205.266,-179.608 222.17,-95.8159 268.348,-45 272.171,-40.7931 276.793,-37.1695 281.718,-34.0683"/>
<polygon fill="#9ecae1" stroke="#9ecae1" points="283.751,-36.9435 290.803,-29.037 280.359,-30.8198 283.751,-36.9435"/>
</g>
<!-- k8s&#45;&gt;docker -->
<!-- Wildcard edge -->
<g id="edge16" class="edge"><title>k8s&#45;&gt;docker</title>
<path fill="none" stroke="#9ecae1" d="M205.058,-251.266C216.034,-275.306 238.582,-319.151 268.348,-348 275.377,-354.813 284.132,-360.727 292.592,-365.554"/>
<polygon fill="#9ecae1" stroke="#9ecae1" points="291.092,-368.721 301.56,-370.356 294.397,-362.55 291.092,-368.721"/>
</g>
<!-- kubelet&#45;wrapper&#45;&gt;kubelet -->
<!-- Wildcard edge -->
<g id="edge24" class="edge"><title>kubelet&#45;wrapper&#45;&gt;kubelet</title>
<path fill="none" stroke="#9ecae1" d="M357.099,-474.053C365.11,-470.131 373.593,-465.656 381.155,-461 395.441,-452.205 410.399,-441.005 422.43,-431.436"/>
<polygon fill="#9ecae1" stroke="#9ecae1" points="424.668,-434.127 430.248,-425.121 420.27,-428.682 424.668,-434.127"/>
</g>
</g>
</svg>
